<svg width="20" height="24" fill="none" xmlns="http://www.w3.org/2000/svg"><path d="M15.997 12.89a5.147 5.147 0 012.45-4.318 5.268 5.268 0 00-4.15-2.244c-1.746-.183-3.44 1.045-4.329 1.045-.907 0-2.277-1.027-3.752-.997a5.527 5.527 0 00-4.652 2.837c-2.011 3.482-.51 8.6 1.416 11.414.964 1.378 2.09 2.918 3.564 2.863 1.442-.06 1.981-.92 3.722-.92 1.725 0 2.23.92 3.735.886 1.547-.026 2.522-1.385 3.452-2.776a11.4 11.4 0 001.58-3.216 4.973 4.973 0 01-3.036-4.575zm-2.841-8.413a5.067 5.067 0 001.16-3.63 5.156 5.156 0 00-3.337 1.726A4.823 4.823 0 009.79 6.068a4.262 4.262 0 003.366-1.591z" fill="#000"/></svg>