<svg width="23" height="23" viewBox="0 0 32 32" fill="none" xmlns="http://www.w3.org/2000/svg"><mask id="a" style="mask-type:alpha" maskUnits="userSpaceOnUse" x="7" y="3" width="24" height="26"><path d="M30.048 14.4a1.82 1.82 0 010 3.2L9.756 28.766c-1.235.68-2.756-.203-2.756-1.6V4.834c0-1.397 1.52-2.28 2.756-1.6L30.048 14.4z" fill="#C4C4C4"/></mask><g mask="url(#a)"><path d="M7.635 28.547l12.657-12.73L7.843 3.3A1.807 1.807 0 007 4.834v22.332c0 .57.252 1.053.635 1.38z" fill="url(#paint0_linear_87_8320)"/><path d="M30.048 14.4a1.82 1.82 0 010 3.2l-5.12 2.816-4.636-4.598 4.4-4.365 5.356 2.947z" fill="url(#paint1_linear_87_8320)"/><path d="M24.93 20.417l-4.638-4.6-12.657 12.73a1.864 1.864 0 002.121.219l15.173-8.35z" fill="url(#paint2_linear_87_8320)"/><path d="M7.843 3.299l12.449 12.519 4.4-4.365L9.756 3.234a1.859 1.859 0 00-1.913.065z" fill="url(#paint3_linear_87_8320)"/></g><defs><linearGradient id="paint0_linear_87_8320" x1="15.677" y1="10.874" x2="7.071" y2="19.551" gradientUnits="userSpaceOnUse"><stop stop-color="#00C3FF"/><stop offset="1" stop-color="#1BE2FA"/></linearGradient><linearGradient id="paint1_linear_87_8320" x1="20.292" y1="15.818" x2="31.738" y2="15.818" gradientUnits="userSpaceOnUse"><stop stop-color="#FFCE00"/><stop offset="1" stop-color="#FFEA00"/></linearGradient><linearGradient id="paint2_linear_87_8320" x1="7.369" y1="30.1" x2="22.595" y2="17.894" gradientUnits="userSpaceOnUse"><stop stop-color="#DE2453"/><stop offset="1" stop-color="#FE3944"/></linearGradient><linearGradient id="paint3_linear_87_8320" x1="8.107" y1="1.901" x2="22.597" y2="13.736" gradientUnits="userSpaceOnUse"><stop stop-color="#11D574"/><stop offset="1" stop-color="#01F176"/></linearGradient></defs></svg>