<svg width="24" height="24" fill="none" xmlns="http://www.w3.org/2000/svg"><path fill-rule="evenodd" clip-rule="evenodd" d="M13.829 19a.998.998 0 01-.78-.373l-4.828-6a1 1 0 01.01-1.267l5-6a1 1 0 111.536 1.28l-4.474 5.371 4.315 5.362a1 1 0 01-.78 1.627z" fill="#151515"/><mask id="a" style="mask-type:luminance" maskUnits="userSpaceOnUse" x="8" y="5" width="7" height="14"><path fill-rule="evenodd" clip-rule="evenodd" d="M13.829 19a.998.998 0 01-.78-.373l-4.828-6a1 1 0 01.01-1.267l5-6a1 1 0 111.536 1.28l-4.474 5.371 4.315 5.362a1 1 0 01-.78 1.627z" fill="#fff"/></mask><g mask="url(#a)"><path fill="#151515" d="M0 0h24v24H0z"/></g></svg>