<svg width="1522" height="945" fill="none" xmlns="http://www.w3.org/2000/svg"><path d="M1521.8 92.36c-27.88-64.64-101.08-105.43-170.54-88.54a149.722 149.722 0 00-84.47 55.89 134.678 134.678 0 00-24.45 97.47c4.37 33.18 20.27 65.29 46.06 86.98 23.73 19.97 57.47 30.2 88.08 23.29 31.74-7.24 52.29-34.38 53.72-66.45 1.58-35.18-15.9-69.29-40.14-93.71-25.55-25.61-60.86-41.89-97.35-35.2-36.5 6.7-60.3 35.22-65.75 71.19-6.45 42.44 10.28 82.8 17.88 123.84a202.62 202.62 0 01-9.45 107.32c-24.34 66.26-81.05 121.87-150.4 138.55-37.94 9.12-82.22 7.18-114.64-16.64-29.51-21.68-41.99-60.66-34.81-96.05 7.26-35.74 34.63-62.03 70.12-69.46 35.18-7.36 73.36 4.42 94.77 34.07 20.55 28.4 24.22 67.2 12.97 99.97-12.42 35.92-43.47 62.2-78.59 74.75-79.54 28.16-161.14-14.7-212.01-75.56-53.28-63.73-78.98-144.59-126.11-212.29-40.65-58.41-106.71-115.06-182.37-110.34-74.93 4.6-127.32 69.21-150.38 135.58-29.4 84.55-24.68 176.66-50.02 262.26-22.74 76.83-74.1 153.67-157.15 171.86-37.76 8.64-77.39-.25-107.86-24.19-28.25-22.21-48.23-56.94-44.45-93.7C8.35 555.2 36.5 522.7 70.7 507.46c40.74-18.13 89.52-12.19 128.46 7.76 62.69 32.17 102.48 102.06 102.48 172.08-.16 82.66-59.37 149.17-124.83 192.29-36.34 23.92-75.67 42.71-114.92 61.33-2.54 1.2-.33 4.97 2.21 3.88 76.68-36.52 157.49-75.71 206.47-148.38 20.61-30.51 33.98-65.81 35.32-102.89.92-33.89-6.73-67.46-22.24-97.61-33.1-65.13-103.41-111.89-178.16-102.36-35.86 4.56-68.99 23.82-88.94 54.36-18.83 28.32-21.8 64.34-7.88 95.37 14.03 31.26 42.09 55.58 73.89 67.58 33.75 12.76 71.16 9.18 104.01-4.7 75.66-31.99 117.18-107.41 136.47-183.67 10.9-43.04 15.79-87.16 21.51-131.11 6.02-46.31 13.37-93.62 32.83-136.48 15.85-34.94 40.22-67.27 72.89-87.94 33.5-21.2 74.51-26.92 112.53-15.69 80.54 23.3 130.98 96.87 168.19 166.96 38.09 71.71 72.64 149.79 141.63 197.59 31.88 22.09 69.85 36.88 109 37.11 35.47.24 71.42-11.33 98.94-33.99a118.43 118.43 0 0043.57-87.84c1.05-31.65-10.54-64.53-35.24-85.17-24.7-20.64-59.7-26.21-90.29-17.92-31.42 8.52-56.27 31.8-65.35 63.23-8.81 30.46-3.2 65.4 16.2 90.7 22.72 29.64 61.39 40.98 97.44 40.32 69.57-1.3 132.84-43.54 169.88-100.95a223.821 223.821 0 0034.65-95.24c1.96-17.21 1.64-34.59-.93-51.72-3.56-23.58-10.8-46.4-15.74-69.69-8.4-39.62-9.07-90.58 28.51-116.13 36.28-24.7 83.42-13.18 114.85 13.59 29.1 24.89 51.2 63.58 47.44 102.99-1.79 18.59-10.61 36.28-25.98 47.31-14.26 10.23-32.19 13.58-49.47 12.4-79.66-5.82-121.78-98.66-97.69-168.78 12.73-36.96 43.16-66.51 79.06-81.3a138.187 138.187 0 01111.87 2.99c33.38 15.7 59.92 43 74.68 76.82 1.12 2.58 4.88.35 3.78-2.2z" fill="#FF4C0D"/></svg>