<svg width="1755.086" height="1133.727" viewBox="0 0 1755.09 1133.73" fill="none" xmlns="http://www.w3.org/2000/svg"><path d="M65.1.42C16.61 36.7-6.3 100.15 1.49 159.46c8.07 61.45 50.73 110.28 109.43 129.05 56.66 18.08 124.11 7.97 166.74-35.64 39.87-40.79 57.6-113.15 9.92-155.53-40.27-35.78-110.77-35.18-147.51 5.31-36.73 40.5-33.86 105.43-3.84 148.88 37.88 54.81 110.85 61.2 171.43 53.63 73.43-9.04 149.49-40.27 223.45-17.55 58.3 17.91 104.93 66.07 125.94 122.83a182.434 182.434 0 0110.11 88.99c-4.73 32.73-22.65 67.1-51.99 84.11-32.63 18.94-69.18 3.96-86.73-27.83-19.26-34.95-11.84-76.62-3.6-113.62 15.75-70.66 42.74-146.19 101.41-192.62 51.99-41.04 129.76-57.16 186.33-15.6 64.13 47.11 73.66 134.04 61.93 206.9-6.37 39.53-17.78 78.16-28.83 116.58-11.24 39.07-22.75 78.09-32.14 117.69-17.72 75.05-27.48 152.97-12.09 229.35 14.43 71.65 50.83 139.14 112.94 180.01 57.78 38.14 128.85 51.17 197.14 49.12 85.34-2.48 168.49-26.2 250.87-46.4l264.25-64.8 126.71-31.08c2.73-.67 2.02-4.99-.7-4.35l-261.09 64.02c-84.93 20.84-169.63 43.64-255.22 61.65-76.19 16.01-155.86 25-232.35 5.62-33.88-8.57-66.59-22.51-95.09-42.96a244.13 244.13 0 01-73.37-85.85c-76.81-147.24-18.18-313.89 23.18-461.81 19.69-70.48 37.94-147.28 12.31-218.84-11.06-30.94-30.02-59.9-56.94-79.25A134.594 134.594 0 00729.87 205c-65.04 2.55-121.09 43.02-155.56 96.34-19.23 29.86-32.68 63.11-42.75 97.01-10.27 34.64-20.42 72.17-19.64 108.53.68 30.96 12.72 63.97 40.33 80.74 24.67 14.98 53.88 9.91 75.7-7.6 47.52-38.14 53.6-106.8 36.46-161.53-17.01-54.28-56.9-101.79-108.54-126.03-65.74-30.81-137.88-12.39-205.42 1.02-63.96 12.72-145.37 22.04-196.77-28.05-41.07-40-50.41-113.65-11.71-158.3 39.08-45.15 122.42-41.01 156.15 8.77 40.45 59.65-9.03 137.88-66.32 163.32-57.29 25.45-129.84 14.25-177.15-27C5.43 209.26-6.78 137.32 14.6 77.26A156.73 156.73 0 0167.91 3.87c2.29-1.72-.57-5.06-2.81-3.45z" fill="#FF4C0D"/></svg>