<svg width="749" height="792" fill="none" xmlns="http://www.w3.org/2000/svg"><path fill-rule="evenodd" clip-rule="evenodd" d="M347.686-30.757a1.5 1.5 0 10-1.678-2.486c-45.166 30.5-111.385 77.06-156.818 120.155-22.681 21.513-40.362 42.326-47.545 59.96-3.6 8.838-4.641 17.068-2.14 24.239 2.513 7.208 8.491 13.03 18.245 17.265 9.106 3.954 21.903 5.881 36.916 6.414 3.175.112 6.455.163 9.828.156l.783-3.002a264 264 0 01-10.505-.152c-14.901-.529-27.245-2.441-35.828-6.168-9.246-4.015-14.45-9.317-16.606-15.501-2.169-6.219-1.366-13.646 2.086-22.119 6.921-16.992 24.178-37.429 46.83-58.916C236.488 46.183 302.519-.256 347.686-30.757zM247.333 189.561l-.83 3.093c36.597-3.462 77.2-10.256 111.323-16.218 4.524-.79 8.933-1.566 13.203-2.317l.044-.008.035-.006h.002l.006-.001c11.953-2.103 22.82-4.015 32.081-5.526 12.63-2.06 22.135-3.351 27.307-3.39 1.139-.009 2.002.045 2.611.145-.388.351-.971.795-1.798 1.334-4.523 2.952-14.705 7.749-32.045 14.948-68.401 28.397-197.546 112.509-290.276 197.703-46.344 42.578-83.772 85.585-99.898 122.173-8.066 18.303-10.891 35.2-6.61 49.699 2.905 9.835 9.034 18.418 18.744 25.513l2.11-2.173c-9.465-6.821-15.257-14.985-17.976-24.19-3.998-13.538-1.448-29.655 6.478-47.639 15.86-35.986 52.888-78.642 99.182-121.174 92.546-85.025 221.401-168.912 289.396-197.141 17.285-7.176 27.736-12.076 32.534-15.206 1.199-.782 2.146-1.518 2.761-2.214.525-.595 1.288-1.724.688-2.968-.271-.561-.73-.906-1.132-1.117-.406-.214-.866-.351-1.326-.445-.92-.189-2.101-.258-3.466-.248-5.449.041-15.195 1.378-27.767 3.43-9.281 1.514-20.177 3.431-32.138 5.535l-.005.001c-4.291.755-8.72 1.534-13.261 2.327-33.779 5.902-73.802 12.599-109.977 16.08zM84.499 655.041c21.736-18.007 47.437-35.933 74.814-52.988l.187-.053 16.5-10 1.373-.933c8.042-4.78 16.181-9.473 24.363-14.062 42.862-24.039 86.946-45.226 124.484-60.865 37.478-15.615 68.597-25.771 85.463-27.631 2.178-.24 4.044-.313 5.597-.214 1.534.098 2.863.368 3.901.889 1.077.541 1.906 1.395 2.188 2.599.265 1.134-.025 2.302-.537 3.378-1.015 2.136-3.251 4.627-6.35 7.354-3.139 2.763-7.307 5.89-12.365 9.281-19.168 12.853-51.484 29.752-90.258 45.349l-1.864-2.484c38.974-15.627 71.382-32.57 90.452-45.357 4.993-3.348 9.046-6.394 12.053-9.041 3.049-2.683 4.885-4.838 5.623-6.39.365-.767.372-1.202.324-1.407-.031-.136-.126-.357-.613-.601-.527-.265-1.403-.491-2.745-.576-1.324-.084-3.006-.026-5.078.202-16.388 1.808-47.146 11.798-84.637 27.418-37.431 15.595-81.409 36.731-124.171 60.713-7.369 4.132-14.7 8.349-21.955 12.636l.112-.019L174 596.5l.097.021c-32.211 19.378-62.62 40.067-87.685 60.83-32.582 26.991-55.879 53.905-62.62 78.053-3.355 12.016-2.218 21.703 2.954 29.357 5.208 7.707 14.687 13.625 28.582 17.666 27.816 8.09 72.494 8.424 132.849 1.52C298.463 771.332 460.397 734.642 665.619 678h11.251c-210.212 58.294-375.961 96.071-488.353 108.928-60.395 6.908-105.592 6.649-134.026-1.62-14.23-4.139-24.47-10.343-30.23-18.867-5.797-8.579-6.879-19.236-3.359-31.844 7.008-25.103 30.961-52.522 63.597-79.556zM749 657.684c171.997-49.267 270.97-84.384 325.53-108.306 28.49-12.489 44.98-21.973 53.44-28.887 4.18-3.421 6.63-6.391 7.4-8.969.4-1.347.37-2.651-.2-3.814-.55-1.14-1.52-1.962-2.63-2.54a1.508 1.508 0 00-2.03.643 1.5 1.5 0 00.65 2.022c.73.38 1.13.794 1.31 1.18.18.363.26.876.03 1.65-.5 1.663-2.33 4.15-6.43 7.506-8.12 6.64-24.3 15.992-52.74 28.462-54.29 23.803-152.885 58.802-324.33 107.932v3.121zm-487.173-85.037l2.055 2.496a646.385 646.385 0 01-35.306 10.164l-1.482-2.717a641.71 641.71 0 0034.733-9.943zm171.835-407.928c.001 0-.003.012-.018.036.009-.024.017-.037.018-.036z" fill="#FF4C0D"/></svg>