<svg width="60" height="39" fill="none" xmlns="http://www.w3.org/2000/svg"><path d="M59.36 0c.35 0 .64.28.64.62v37.75c0 .34-.29.63-.64.63h-8.13a.64.64 0 01-.63-.63V.62c0-.34.29-.62.63-.62h8.13zM24.09 0c6.13 0 12.54.28 15.7 3.5 3.11 3.17 3.45 9.48 3.46 15.6v19.27c0 .34-.28.63-.63.63H34.5c-.35 0-.64-.29-.64-.63v-19.6c-.01-3.42-.2-6.94-1.93-8.71-1.5-1.52-4.28-1.87-7.18-1.94H10.02c-.35 0-.63.28-.63.62v29.63c0 .34-.29.63-.63.63H.62c-.34 0-.62-.29-.62-.63V.62C0 .28.28 0 .62 0h23.47zm1.82 15.03c.34 0 .62.28.62.62v22.72c0 .34-.28.63-.62.63h-8.54c-.35 0-.63-.29-.63-.63V15.65c0-.34.28-.62.63-.62h8.54z" fill="#F1F1F1" fill-rule="evenodd"/></svg>