<svg width="1755.086" height="1133.727" viewBox="0 0 1755.09 1133.73" fill="none" xmlns="http://www.w3.org/2000/svg"><path d="M1689.98.42c48.5 36.28 71.4 99.73 63.61 159.04-8.07 61.45-50.73 110.28-109.43 129.05-56.66 18.08-124.11 7.97-166.74-35.64-39.87-40.79-57.6-113.15-9.92-155.53 40.27-35.78 110.77-35.18 147.51 5.32 36.73 40.49 33.86 105.42 3.84 148.87-37.88 54.81-110.85 61.2-171.43 53.63-73.42-9.04-149.49-40.27-223.44-17.55-58.31 17.91-104.94 66.07-125.95 122.83a182.316 182.316 0 00-10.11 88.99c4.74 32.73 22.64 67.1 51.99 84.11 32.63 18.94 69.18 3.96 86.73-27.83 19.26-34.95 11.84-76.62 3.6-113.62-15.75-70.66-42.74-146.19-101.42-192.62-51.98-41.04-129.75-57.16-186.32-15.6-64.14 47.11-73.67 134.04-61.94 206.9 6.38 39.53 17.79 78.16 28.84 116.58 11.23 39.07 22.74 78.09 32.14 117.69 17.72 75.05 27.48 152.97 12.09 229.35-14.43 71.65-50.83 139.14-112.94 180.01-57.79 38.14-128.85 51.17-197.14 49.12-85.34-2.48-168.49-26.2-250.87-46.4l-264.25-64.8L1.72 991.24c-2.73-.67-2.02-4.99.7-4.35l261.09 64.02c84.93 20.84 169.63 43.64 255.22 61.65 76.19 16.01 155.86 25 232.35 5.62 33.87-8.57 66.59-22.51 95.08-42.96a244.158 244.158 0 0073.38-85.85c76.81-147.24 18.18-313.89-23.19-461.81-19.68-70.48-37.94-147.28-12.3-218.84 11.05-30.94 30.02-59.9 56.93-79.25a134.64 134.64 0 0184.23-24.47c65.04 2.55 121.09 43.02 155.56 96.35 19.24 29.85 32.67 63.1 42.75 97 10.27 34.64 20.41 72.17 19.64 108.53-.68 30.96-12.73 63.97-40.34 80.74-24.66 14.98-53.88 9.91-75.69-7.6-47.51-38.14-53.6-106.8-36.46-161.53 17.01-54.28 56.9-101.79 108.54-126.03 65.73-30.81 137.88-12.39 205.42 1.02 63.96 12.72 145.37 22.04 196.78-28.05 41.06-40 50.4-113.65 11.7-158.3-39.08-45.15-122.42-41.01-156.15 8.77-40.45 59.65 9.03 137.88 66.32 163.32 57.29 25.45 129.84 14.25 177.15-27 49.22-42.96 61.43-114.9 40.05-174.96a156.663 156.663 0 00-53.31-73.39c-2.29-1.72.57-5.06 2.81-3.45z" fill="#FF4C0D"/></svg>